#!OML:ASF I:\Actors\actors\Patient Classification 1\Patient 1\Session 1\Subject1.ASF
:FULLY-SPECIFIED
:DEGREES
647
root 0.0699696 17.4826 8.81631 8.79323 -0.302074 -7.35026
lowerback -0.652144 1.33252 5.65199
upperback -9.4844 2.11158 0.551133
thorax -9.51369 0.606196 -2.72351
lowerneck -11.1947 -6.13526 -3.96331
upperneck 18.0478 -9.56069 9.01518
head 8.06495 -4.00858 2.62088
rclavicle 2.13694e-014 1.07344e-014
rhumerus -63.6576 -42.5696 -42.1598
rradius 23.333
rwrist 48.8519
rhand 9.46324 -33.6168
rfingers 7.12502
rthumb 34.6171 -60.2615
lclavicle 2.13694e-014 1.07344e-014
lhumerus -62.3837 37.4024 43.1725
lradius 22.7531
lwrist -18.1151
lhand -20.3921 -9.32617
lfingers 7.12502
lthumb 5.96129 20.57
rfemur -1.49958 24.8225 24.0458
rtibia 2.59364
rfoot -13.2529 -26.0035
rtoes 5.15062
lfemur 6.81242 -42.5668 -14.3361
ltibia -4.9014
lfoot -22.1251 52.2935
ltoes 12.5224
648
root 0.0759363 17.4825 8.81706 8.84684 -0.302549 -7.35099
lowerback -0.614795 1.33819 5.66639
upperback -9.48996 2.12199 0.539118
thorax -9.54062 0.608581 -2.74624
lowerneck -11.1878 -6.16895 -3.91386
upperneck 17.9291 -9.59663 8.97352
head 8.0223 -4.02986 2.59496
rclavicle -1.63003e-014 9.93923e-015
rhumerus -63.5223 -42.4575 -42.4494
rradius 23.4758
rwrist 48.8321
rhand 9.55387 -33.64
rfingers 7.12502
rthumb 34.7031 -60.2649
lclavicle -1.63003e-014 9.93923e-015
lhumerus -62.13 37.1676 43.484
lradius 22.3653
lwrist -19.0987
lhand -20.3954 -8.6285
lfingers 7.12502
lthumb 5.95807 21.2677
rfemur -1.53624 24.9249 24.0053
rtibia 2.55489
rfoot -13.2776 -26.102
rtoes 5.24165
lfemur 6.70297 -42.4946 -14.274
ltibia -4.891
lfoot -22.0579 52.2417
ltoes 12.3842
649
root 0.0810511 17.4831 8.8179 8.90053 -0.325946 -7.36498
lowerback -0.595004 1.34205 5.69487
upperback -9.48594 2.12916 0.53112
thorax -9.5465 0.609203 -2.77164
lowerneck -11.162 -6.18011 -3.96284
upperneck 17.7859 -9.59641 9.00967
head 7.97442 -4.03475 2.61558
rclavicle 2.98177e-016 1.59028e-015
rhumerus -63.2503 -42.2502 -42.9471
rradius 23.5991
rwrist 48.664
rhand 9.4347 -33.6566
rfingers 7.12502
rthumb 34.59 -60.3075
lclavicle 2.98177e-016 1.59028e-015
lhumerus -61.7607 36.8588 43.9627
lradius 21.9466
lwrist -20.4038
lhand -20.4506 -8.58642
lfingers 7.12502
lthumb 5.90483 21.3113
rfemur -1.56757 25.1046 23.9942
rtibia 2.53362
rfoot -13.3241 -26.2519
rtoes 5.57071
lfemur 6.63623 -42.4568 -14.2178
ltibia -4.91898
lfoot -21.9802 52.2767
ltoes 12.2094
650
root 0.0861579 17.484 8.81887 8.92083 -0.378461 -7.41911
lowerback -0.528369 1.35558 5.74876
upperback -9.48135 2.15665 0.557168
thorax -9.57869 0.61856 -2.77773
lowerneck -11.1721 -6.1777 -4.15842
upperneck 17.7094 -9.58654 9.19545
head 7.96959 -4.02792 2.7096
rclavicle 2.48481e-015 -6.36111e-015
rhumerus -62.8424 -41.9967 -43.4795
rradius 23.6228
rwrist 48.3894
rhand 9.30682 -33.6605
rfingers 7.12502
rthumb 34.4686 -60.339
lclavicle 2.48481e-015 -6.36111e-015
lhumerus -61.3569 36.5043 44.5692
lradius 21.5108
lwrist -22.0517
lhand -20.3705 -8.51604
lfingers 7.12502
lthumb 5.98217 21.3795
rfemur -1.57936 25.187 24.0417
rtibia 2.53708
rfoot -13.2583 -26.3094
rtoes 5.30744
lfemur 6.68437 -42.5574 -14.2197
ltibia -4.94015
lfoot -22.1314 52.4427
ltoes 12.31
651
root 0.0925029 17.4841 8.8201 8.93713 -0.433114 -7.46809
lowerback -0.448348 1.36976 5.807
upperback -9.48104 2.18709 0.589995
thorax -9.62361 0.628832 -2.77971
lowerneck -11.1853 -6.16658 -4.47518
upperneck 17.661 -9.55837 9.45027
head 7.98265 -4.01322 2.84843
rclavicle 7.7526e-015 -1.19271e-015
rhumerus -62.4209 -41.7442 -43.9783
rradius 23.6738
rwrist 48.1251
rhand 9.33974 -33.724
rfingers 7.12502
rthumb 34.4998 -60.3954
lclavicle 7.7526e-015 -1.19271e-015
lhumerus -60.8883 36.044 45.3303
lradius 21.0561
lwrist -23.7336
lhand -20.2258 -8.41835
lfingers 7.12502
lthumb 6.12178 21.4732
rfemur -1.60537 25.1259 24.0647
rtibia 2.54166
rfoot -13.1345 -26.2664
rtoes 4.8072
lfemur 6.77445 -42.7662 -14.294
ltibia -4.92623
lfoot -22.4422 52.6811
ltoes 12.4974
652
root 0.0984202 17.4839 8.82121 8.99664 -0.477909 -7.45801
lowerback -0.403362 1.38375 5.81382
upperback -9.49965 2.21051 0.590273
thorax -9.66924 0.637932 -2.78653
lowerneck -11.1812 -6.178 -4.50534
upperneck 17.6444 -9.57701 9.49847
head 7.98196 -4.02025 2.86722
rclavicle 3.97569e-015 -1.70955e-014
rhumerus -62.1581 -41.6059 -44.3079
rradius 23.7408
rwrist 48.0219
rhand 9.34502 -33.6926
rfingers 7.12502
rthumb 34.5048 -60.3628
lclavicle 3.97569e-015 -1.70955e-014
lhumerus -60.3522 35.4558 46.2028
lradius 20.6209
lwrist -25.393
lhand -19.9199 -8.51526
lfingers 7.12502
lthumb 6.41715 21.3675
rfemur -1.68827 25.0681 23.9925
rtibia 2.53833
rfoot -13.0601 -26.2346
rtoes 4.35765
lfemur 6.76145 -42.9372 -14.3673
ltibia -4.88913
lfoot -22.6478 52.895
ltoes 12.4926
653
root 0.103247 17.4837 8.82263 9.04763 -0.52407 -7.46916
lowerback -0.351011 1.39474 5.81606
upperback -9.51806 2.23059 0.595767
thorax -9.71966 0.645867 -2.78525
lowerneck -11.1602 -6.18818 -4.29836
upperneck 17.5403 -9.56943 9.25319
head 7.91998 -4.02901 2.75364
rclavicle -7.35503e-015 -2.22639e-014
rhumerus -61.9686 -41.5903 -44.4694
rradius 23.7084
rwrist 48.0654
rhand 9.2484 -33.5531
rfingers 7.12502
rthumb 34.4131 -60.2442
lclavicle -7.35503e-015 -2.22639e-014
lhumerus -59.6036 34.5884 47.5729
lradius 20.3517
lwrist -26.8459
lhand -19.7023 -8.07047
lfingers 7.12502
lthumb 6.62724 21.8058
rfemur -1.74709 25.0985 23.9629
rtibia 2.52473
rfoot -13.0008 -26.257
rtoes 3.75715
lfemur 6.75417 -43.1091 -14.4064
ltibia -4.86418
lfoot -22.8528 53.1186
ltoes 12.5882
654
root 0.107599 17.4835 8.82376 9.08398 -0.577553 -7.46807
lowerback -0.292771 1.39179 5.78019
upperback -9.52685 2.23048 0.609128
thorax -9.76553 0.64772 -2.75297
lowerneck -11.2373 -6.17979 -4.06458
upperneck 17.5724 -9.5581 9.03212
head 7.92067 -4.02499 2.64179
rclavicle -1.98785e-014 1.63003e-014
rhumerus -61.7693 -41.6446 -44.5824
rradius 23.6708
rwrist 48.1956
rhand 9.23008 -33.5521
rfingers 7.12502
rthumb 34.3957 -60.2471
lclavicle -1.98785e-014 1.63003e-014
lhumerus -58.8413 33.632 49.0907
lradius 20.1834
lwrist -28.0019
lhand -19.3768 -7.65376
lfingers 7.12502
lthumb 6.94138 22.2124
rfemur -1.79042 25.1812 23.9231
rtibia 2.53049
rfoot -13.0325 -26.28
rtoes 3.5674
lfemur 6.76323 -43.2463 -14.4664
ltibia -4.83757
lfoot -23.0879 53.2946
ltoes 12.7414
655
root 0.112119 17.4833 8.82365 9.13078 -0.614408 -7.40609
lowerback -0.244885 1.38125 5.70293
upperback -9.53808 2.21611 0.607811
thorax -9.80939 0.645344 -2.71197
lowerneck -11.2773 -6.12711 -3.9695
upperneck 17.5709 -9.48519 8.9527
head 7.91337 -3.99008 2.6075
rclavicle -1.59028e-014 -2.46493e-014
rhumerus -61.55 -41.697 -44.7384
rradius 23.6945
rwrist 48.2474
rhand 9.24257 -33.6613
rfingers 7.12502
rthumb 34.4076 -60.3537
lclavicle -1.59028e-014 -2.46493e-014
lhumerus -58.5465 33.2358 49.6624
lradius 19.8735
lwrist -29.3531
lhand -18.5914 -8.80613
lfingers 7.12502
lthumb 7.69956 21.0337
rfemur -1.85811 25.1989 23.7953
rtibia 2.54756
rfoot -13.0999 -26.2494
rtoes 3.70176
lfemur 6.6907 -43.2542 -14.5317
ltibia -4.79092
lfoot -23.1631 53.3405
ltoes 12.6753
656
root 0.117005 17.4833 8.82355 9.15645 -0.621554 -7.37248
lowerback -0.180571 1.36361 5.68393
upperback -9.5388 2.19698 0.619064
thorax -9.85115 0.636669 -2.68993
lowerneck -11.3869 -6.08891 -4.12832
upperneck 17.6555 -9.42598 9.0418
head 7.96908 -3.95837 2.66664
rclavicle -1.2921e-015 1.27222e-014
rhumerus -61.1743 -41.5924 -45.1324
rradius 23.7484
rwrist 48.0367
rhand 9.21331 -33.762
rfingers 7.12502
rthumb 34.3798 -60.4607
lclavicle -1.2921e-015 1.27222e-014
lhumerus -58.5203 33.3162 49.6345
lradius 19.5033
lwrist -30.7807
lhand -17.9422 -9.94244
lfingers 7.12502
lthumb 8.32615 19.8735
rfemur -1.8969 25.0899 23.7169
rtibia 2.5527
rfoot -13.042 -26.1613
rtoes 3.55339
lfemur 6.62207 -43.2021 -14.5558
ltibia -4.75288
lfoot -23.1095 53.3169
ltoes 12.5439
657
root 0.121186 17.4841 8.82354 9.15111 -0.630421 -7.37903
lowerback -0.0739936 1.34818 5.69746
upperback -9.53576 2.18694 0.647769
thorax -9.91332 0.630027 -2.66923
lowerneck -11.5123 -6.09353 -4.31686
upperneck 17.8047 -9.43083 9.15055
head 8.05622 -3.955 2.72951
rclavicle -8.34896e-015 -1.31198e-014
rhumerus -60.7636 -41.3975 -45.6113
rradius 23.8267
rwrist 47.7301
rhand 9.1875 -33.6757
rfingers 7.12502
rthumb 34.3553 -60.3799
lclavicle -8.34896e-015 -1.31198e-014
lhumerus -58.5097 33.5046 49.5836
lradius 19.1946
lwrist -31.8961
lhand -17.6211 -10.3811
lfingers 7.12502
lthumb 8.63602 19.4222
rfemur -1.91352 24.9983 23.7065
rtibia 2.58741
rfoot -13.0099 -26.075
rtoes 3.4672
lfemur 6.59592 -43.111 -14.5485
ltibia -4.7311
lfoot -22.9985 53.2662
ltoes 12.4079
658
root 0.124419 17.4845 8.82361 9.15999 -0.638535 -7.42066
lowerback 0.0318432 1.32955 5.71217
upperback -9.5484 2.17541 0.701403
thorax -9.99402 0.623006 -2.62254
lowerneck -11.5527 -6.07856 -4.5035
upperneck 17.8979 -9.41321 9.29952
head 8.10991 -3.94143 2.81062
rclavicle -1.59028e-015 -1.59028e-015
rhumerus -60.5347 -41.3635 -45.7942
rradius 23.8936
rwrist 47.6706
rhand 9.15561 -33.3688
rfingers 7.12502
rthumb 34.325 -60.0798
lclavicle -1.59028e-015 -1.59028e-015
lhumerus -58.5445 33.6705 49.5769
lradius 18.9969
lwrist -32.5288
lhand -17.3457 -10.5155
lfingers 7.12502
lthumb 8.90177 19.2768
rfemur -1.96071 24.9829 23.7353
rtibia 2.64752
rfoot -13.0051 -26.0558
rtoes 3.42436
lfemur 6.56262 -43.0646 -14.4868
ltibia -4.7256
lfoot -22.8926 53.2743
ltoes 12.2488
659
root 0.128192 17.4843 8.82515 9.1955 -0.614997 -7.49642
lowerback 0.0662003 1.27966 5.75993
upperback -9.56248 2.1198 0.7738
thorax -10.0377 0.593736 -2.56839
lowerneck -11.5417 -6.08353 -4.59488
upperneck 17.9342 -9.4126 9.32867
head 8.12572 -3.94405 2.8357
rclavicle 5.96354e-016 -1.66979e-014
rhumerus -60.3321 -41.3907 -45.9129
rradius 23.9321
rwrist 47.7073
rhand 9.09614 -33.2341
rfingers 7.12502
rthumb 34.2686 -59.9578
lclavicle 5.96354e-016 -1.66979e-014
lhumerus -58.6321 33.8764 49.5297
lradius 18.8951
lwrist -32.8376
lhand -17.0928 -10.2555
lfingers 7.12502
lthumb 9.14577 19.5262
rfemur -2.01437 25.0096 23.8023
rtibia 2.68234
rfoot -12.9801 -26.1089
rtoes 3.43331
lfemur 6.55346 -43.2063 -14.4146
ltibia -4.73457
lfoot -22.9481 53.421
ltoes 12.2826
660
root 0.131691 17.4848 8.82736 9.23654 -0.579044 -7.53043
lowerback 0.0573965 1.22271 5.78904
upperback -9.57981 2.04774 0.812766
thorax -10.0595 0.556909 -2.53698
lowerneck -11.488 -6.09565 -4.48983
upperneck 17.9878 -9.41963 9.15111
head 8.11981 -3.95722 2.76019
rclavicle 1.73937e-014 9.54166e-015
rhumerus -60.0667 -41.2861 -46.2594
rradius 24.0171
rwrist 47.5104
rhand 9.05504 -33.42
rfingers 7.12502
rthumb 34.2295 -60.1526
lclavicle 1.73937e-014 9.54166e-015
lhumerus -58.8093 34.2649 49.202
lradius 18.7903
lwrist -33.1987
lhand -16.928 -10.1196
lfingers 7.12502
lthumb 9.30483 19.6551
rfemur -2.05512 25.0898 23.8254
rtibia 2.69838
rfoot -12.9914 -26.2131
rtoes 3.54173
lfemur 6.56072 -43.4678 -14.4169
ltibia -4.71808
lfoot -23.2618 53.5995
ltoes 12.6615
661
root 0.133516 17.4859 8.82903 9.27123 -0.549778 -7.54454
lowerback 0.0744097 1.18244 5.78789
upperback -9.6044 1.99745 0.834406
thorax -10.1029 0.531662 -2.50978
lowerneck -11.4405 -6.10772 -4.32274
upperneck 18.0435 -9.43073 8.93687
head 8.11118 -3.97121 2.66182
rclavicle 2.78299e-015 -1.23246e-014
rhumerus -59.8215 -41.1684 -46.6156
rradius 24.1092
rwrist 47.1956
rhand 9.02754 -33.6446
rfingers 7.12502
rthumb 34.2034 -60.383
lclavicle 2.78299e-015 -1.23246e-014
lhumerus -58.8691 34.4988 49.0644
lradius 18.7327
lwrist -33.2515
lhand -16.836 -9.98739
lfingers 7.12502
lthumb 9.39361 19.7833
rfemur -2.08647 25.2312 23.835
rtibia 2.71796
rfoot -13.0766 -26.348
rtoes 3.76012
lfemur 6.56305 -43.7175 -14.4356
ltibia -4.68488
lfoot -23.7095 53.7402
ltoes 13.0903
